<?xml version="1.0" standalone="no"?><!DOCTYPE svg PUBLIC "-//W3C//DTD SVG 1.1//EN" "http://www.w3.org/Graphics/SVG/1.1/DTD/svg11.dtd"><svg t="1758016914253" class="icon" viewBox="0 0 1024 1024" version="1.1" xmlns="http://www.w3.org/2000/svg" p-id="13335" xmlns:xlink="http://www.w3.org/1999/xlink" width="200" height="200"><path d="M47.53408 507.63264a485.18144 485.18144 0 0 0 141.99296 342.98368 484.63872 484.63872 0 0 0 342.78912 142.06976 484.6336 484.6336 0 0 0 342.79424-142.06976 485.17632 485.17632 0 0 0 141.99296-342.98368 485.2224 485.2224 0 0 0-141.99296-342.98368 484.63872 484.63872 0 0 0-342.79424-142.06464 484.64896 484.64896 0 0 0-342.79424 142.06464 485.19168 485.19168 0 0 0-141.98784 342.9888z" fill="#409eff" p-id="13336" data-spm-anchor-id="a313x.search_index.0.i3.30333a81YTsRBY" class="selected"></path><path d="M434.1248 777.10848L510.11584 674.816l-75.99616-21.56032v123.8528z m-268.55936-240.69632l216.0128 64.40448 266.01984-222.3104-206.14656 239.45216 230.9376 70.22592 118.94784-450.0224-625.7152 298.25024h-0.05632z" fill="#FFFFFF" p-id="13337"></path></svg>